<svg width="1440" height="385" viewBox="0 0 1440 385" fill="none" xmlns="http://www.w3.org/2000/svg">
<path d="M1442.35 167.182C1447.89 157.628 1460.13 154.376 1469.68 159.918C1479.24 165.46 1482.49 177.699 1476.95 187.254L1442.35 167.182ZM-106.847 162.992C-50.9114 90.3473 11.1228 45.0228 77.9373 21.1606C144.623 -2.65556 214.582 -4.56387 285.643 7.2046C426.692 30.5638 576.117 108.723 719.389 182.579C864.594 257.431 1003.13 327.645 1127.39 341.83C1188.8 348.839 1245.66 341.974 1297.62 315.699C1349.62 289.406 1398.5 242.772 1442.35 167.182L1476.95 187.254C1430.18 267.88 1376.12 320.829 1315.67 351.395C1255.19 381.979 1190.1 389.247 1122.86 381.571C989.817 366.385 844.264 291.953 701.061 218.133C555.925 143.316 412.625 68.7789 279.107 46.6671C212.885 35.7 150.1 37.8627 91.3907 58.8303C32.8104 79.7517 -23.2012 119.924 -75.1533 187.395L-106.847 162.992Z" fill="url(#paint0_linear_146_60)" fill-opacity="0.7"/>
<defs>
<linearGradient id="paint0_linear_146_60" x1="849.522" y1="628.908" x2="-104.71" y2="105.942" gradientUnits="userSpaceOnUse">
<stop stop-color="#5D3685"/>
<stop offset="1" stop-color="#FFC82A"/>
</linearGradient>
</defs>
</svg>
